<?xml version="1.0" encoding="UTF-8" standalone="no"?><!DOCTYPE svg PUBLIC "-//W3C//DTD SVG 1.1//EN" "http://www.w3.org/Graphics/SVG/1.1/DTD/svg11.dtd"><svg width="100%" height="100%" viewBox="0 0 160 160" version="1.1" xmlns="http://www.w3.org/2000/svg" xmlns:xlink="http://www.w3.org/1999/xlink" xml:space="preserve" xmlns:serif="http://www.serif.com/" style="fill-rule:evenodd;clip-rule:evenodd;stroke-linejoin:round;stroke-miterlimit:2;"><g id="etherscan-logo-circle"><circle cx="80" cy="80" r="78" style="fill:#fff;"/><path id="Path_1" d="M33.253,76.152l0,-0.001c0,-3.72 3.06,-6.781 6.78,-6.781l0.032,0l11.294,0.037c3.725,0 6.79,3.065 6.79,6.79l0,42.707c1.272,-0.377 2.904,-0.778 4.691,-1.198c2.547,-0.599 4.362,-2.89 4.362,-5.506l0,-52.975c0,-3.725 3.066,-6.791 6.791,-6.791l11.316,0c3.725,0 6.79,3.065 6.79,6.79l0,49.169c0,0 2.832,-1.147 5.593,-2.312c2.092,-0.885 3.458,-2.945 3.46,-5.216l0,-58.618c0,-3.725 3.065,-6.789 6.79,-6.789l11.316,0c3.725,0 6.79,3.065 6.791,6.79l0,48.268c9.811,-7.11 19.754,-15.663 27.645,-25.946c2.323,-3.029 2.975,-7.031 1.734,-10.641c-10.913,-31.804 -40.799,-53.458 -74.421,-53.922c-44.354,-0.596 -81.011,35.611 -81.007,79.971c-0.043,14.036 3.621,27.838 10.621,40.004c1.967,3.391 5.738,5.345 9.644,4.996c2.141,-0.189 4.806,-0.455 7.975,-0.827c2.841,-0.324 5.012,-2.754 5.015,-5.613l0,-42.386" style="fill:#21325b;fill-rule:nonzero;"/><path id="Path_2" d="M33.006,144.644c13.666,9.942 30.138,15.299 47.037,15.299c43.863,0 79.957,-36.093 79.957,-79.956l0,-0.013c0,-1.842 -0.086,-3.662 -0.209,-5.473c-29.215,43.571 -83.158,63.94 -126.785,70.145" style="fill:#979695;fill-rule:nonzero;"/></g></svg>