<?xml version="1.0" encoding="UTF-8" standalone="no"?><!DOCTYPE svg PUBLIC "-//W3C//DTD SVG 1.1//EN" "http://www.w3.org/Graphics/SVG/1.1/DTD/svg11.dtd"><svg width="100%" height="100%" viewBox="0 0 120 120" version="1.1" xmlns="http://www.w3.org/2000/svg" xmlns:xlink="http://www.w3.org/1999/xlink" xml:space="preserve" xmlns:serif="http://www.serif.com/" style="fill-rule:evenodd;clip-rule:evenodd;stroke-linejoin:round;stroke-miterlimit:2;"><path d="M60.001,0c-33.134,0 -60.001,26.862 -60.001,59.999c0,26.51 17.192,49.001 41.032,56.935c2.999,0.555 4.1,-1.302 4.1,-2.887c-0,-1.43 -0.056,-6.157 -0.082,-11.17c-16.692,3.629 -20.214,-7.08 -20.214,-7.08c-2.73,-6.935 -6.662,-8.779 -6.662,-8.779c-5.444,-3.724 0.41,-3.647 0.41,-3.647c6.025,0.422 9.198,6.183 9.198,6.183c5.351,9.172 14.036,6.521 17.46,4.987c0.538,-3.877 2.093,-6.525 3.809,-8.023c-13.327,-1.517 -27.336,-6.662 -27.336,-29.652c-0,-6.551 2.344,-11.903 6.182,-16.105c-0.623,-1.512 -2.677,-7.614 0.581,-15.879c0,0 5.039,-1.612 16.504,6.151c4.787,-1.33 9.919,-1.997 15.019,-2.019c5.099,0.022 10.235,0.689 15.03,2.019c11.452,-7.763 16.484,-6.151 16.484,-6.151c3.266,8.265 1.211,14.367 0.588,15.879c3.847,4.202 6.175,9.554 6.175,16.105c0,23.045 -14.036,28.119 -27.397,29.605c2.152,1.862 4.07,5.513 4.07,11.111c-0,8.027 -0.07,14.488 -0.07,16.465c0,1.597 1.08,3.468 4.122,2.879c23.827,-7.943 40.997,-30.426 40.997,-56.927c0,-33.137 -26.863,-59.999 -59.999,-59.999Z" style="fill:#fff;"/></svg>