<?xml version="1.0" encoding="UTF-8" standalone="no"?><!DOCTYPE svg PUBLIC "-//W3C//DTD SVG 1.1//EN" "http://www.w3.org/Graphics/SVG/1.1/DTD/svg11.dtd"><svg width="100%" height="100%" viewBox="0 0 330 330" version="1.1" xmlns="http://www.w3.org/2000/svg" xmlns:xlink="http://www.w3.org/1999/xlink" xml:space="preserve" xmlns:serif="http://www.serif.com/" style="fill-rule:evenodd;clip-rule:evenodd;stroke-linejoin:round;stroke-miterlimit:2;"><path d="M192.3,114.6c0,6.958 -5.639,12.601 -12.6,12.601c-6.958,-0 -12.598,-5.643 -12.598,-12.601l-0,-12.607c-0,-4.64 -3.756,-8.393 -8.423,-8.393l-75.555,-0c-4.658,-0 -8.422,3.759 -8.422,8.422l-0,125.955c-0,4.662 3.762,8.423 8.422,8.423l75.555,-0c4.653,-0 8.423,-3.765 8.423,-8.393l-0,-12.607c-0,-6.958 5.64,-12.601 12.598,-12.601c6.961,0 12.6,5.643 12.6,12.601l0,12.607c0,18.553 -15.058,33.594 -33.621,33.594l-75.555,0c-18.582,0 -33.621,-15.049 -33.621,-33.623l0,-125.956c0,-18.585 15.047,-33.623 33.621,-33.623l75.555,-0c18.58,-0 33.621,15.032 33.621,33.594l0,12.607Zm84.48,58.984l-42.99,42.111c-11.877,11.841 -29.698,-5.924 -17.821,-17.772l14.514,-14.414c3.302,-3.281 2.206,-5.944 -2.449,-5.944l-57.773,-0c-6.906,-0 -12.572,-5.625 -12.572,-12.563c0,-6.925 5.628,-12.565 12.572,-12.565l57.773,-0c4.632,-0 5.751,-2.66 2.449,-5.944l-14.514,-14.418c-11.877,-11.844 5.944,-29.613 17.821,-17.771l42.932,41.678c5.019,4.872 5.027,12.735 0.059,17.601l-0.001,0.001Z" style="fill:#fff;"/></svg>